<svg xmlns="http://www.w3.org/2000/svg" xmlns:xlink="http://www.w3.org/1999/xlink" width="1920" height="1860" viewBox="0 0 1920 1860">
  <defs>
    <clipPath id="clip-Mohkm-Home-01_1">
      <rect width="1920" height="1860"/>
    </clipPath>
  </defs>
  <g id="Mohkm-Home-01_1" data-name="Mohkm-Home-01 – 1" clip-path="url(#clip-Mohkm-Home-01_1)">
    <rect width="1920" height="1860" fill="#fff"/>
    <path id="Path_365" data-name="Path 365" d="M0,1991.177V0H0C82.175,0,158.668,49.5,191.24,124.945c23.981,55.549,57.795,113.814,100.719,138.1,99.413,56.237,220.06,33.2,327.324,57.2C732.4,345.469,793.336,418.5,863.407,506.975c117.43,148.38-54.436,339.806,70.715,503.95,140.594,184.477,426.607,136.025,627.3,191.941,141.688,39.379,250.882,133.13,330.348,250.753q5.116,7.528,10.038,15.25a857.7,857.7,0,0,1,44.4,77.922c2.831,5.469,5.6,11.132,8.365,16.794,1.995,4.311,4.053,8.622,6.113,13.062.9,1.8,1.737,3.6,2.509,5.534,2.638,5.6,5.083,11.2,7.529,16.923,2.316,5.469,4.633,10.939,6.82,16.408,1.673,3.861,3.218,7.85,4.762,11.711,4.054,10.167,8.043,20.462,11.968,30.693,3.41,9.2,6.821,18.4,10.167,27.6q9.651,26.542,18.4,53.213c13.706,41.631,25.8,83.842,35.9,126.438,3.088,13.191,6.048,26.446,8.686,39.7,3.732,18.21,5.212,59.538,12.354,86.306.065.2.065-.187.128,0h-86.994c-177.142.135-383.175.392-594.484,0h-2.381c-494.492-1.023-1017.488,1.293-1266.632,0C68.36,1990.862,23.743,1991.312,0,1991.177Z" transform="translate(-159.915 -73.986)" fill="#abdfff" opacity="0.159" style="mix-blend-mode: multiply;isolation: isolate"/>
  </g>
</svg>
